<?xml version="1.0" encoding="UTF-8" standalone="no"?><!DOCTYPE svg PUBLIC "-//W3C//DTD SVG 1.1//EN" "http://www.w3.org/Graphics/SVG/1.1/DTD/svg11.dtd"><svg width="100%" height="100%" viewBox="0 0 5000 2625" version="1.1" xmlns="http://www.w3.org/2000/svg" xmlns:xlink="http://www.w3.org/1999/xlink" xml:space="preserve" xmlns:serif="http://www.serif.com/" style="fill-rule:evenodd;clip-rule:evenodd;stroke-linecap:round;stroke-linejoin:round;stroke-miterlimit:10;"><rect x="0" y="0" width="5000" height="2625" style="fill:url(#_Linear1);"/><rect x="0" y="0" width="5000" height="2625" style="fill:none;"/><ellipse cx="426.11" cy="1628.05" rx="2090.91" ry="2596.65" style="fill:url(#_Radial2);"/><text x="1620.87px" y="1583.33px" style="font-family:'Helvetica-Bold', 'Helvetica';font-weight:700;font-size:500px;fill:#fff;">H<tspan x="1966.96px 2340.87px 2686.96px 3033.04px " y="1583.33px 1583.33px 1583.33px 1583.33px ">OUND</tspan></text><g><path d="M3583.33,1700l0,166.667c0,18.397 -14.936,33.333 -33.333,33.333l-2100,0c-18.397,0 -33.333,-14.936 -33.333,-33.333l-0,-166.667c-0,-18.397 14.936,-33.333 33.333,-33.333l2100,-0c18.397,-0 33.333,14.936 33.333,33.333Z" style="fill:#a855f7;"/><text x="1513.54px" y="1825px" style="font-family:'Menlo-Bold', 'Menlo', monospace;font-weight:700;font-size:108.333px;fill:#fde047;">O<tspan x="1579.31px 1645.07px 1710.83px 1776.6px 1842.36px 1908.12px 1973.89px 2039.65px 2105.42px 2171.18px 2236.95px 2302.71px 2368.47px 2434.24px 2500px 2565.76px 2631.53px 2697.29px 2763.05px 2828.82px 2894.58px 2960.35px 3026.11px 3091.88px 3157.64px 3223.4px 3289.17px 3354.93px 3420.69px " y="1825px 1825px 1825px 1825px 1825px 1825px 1825px 1825px 1825px 1825px 1825px 1825px 1825px 1825px 1825px 1825px 1825px 1825px 1825px 1825px 1825px 1825px 1825px 1825px 1825px 1825px 1825px 1825px 1825px ">nce queued, always delivered.</tspan></text></g><text x="1140.42px" y="2125px" style="font-family:'Helvetica';font-size:91.667px;fill:#a8a0c0;">T<tspan x="1191.4px 1237.23px " y="2125px 2125px ">yp</tspan>e-safe job queue for Deno · at-least-once · cron · retries · REST</text><text x="1978.63px" y="2383.33px" style="font-family:'Menlo-Bold', 'Menlo', monospace;font-weight:700;font-size:58.333px;fill:#6d5d92;">H<tspan x="2017.26px 2055.87px 2094.49px 2133.11px 2171.73px 2210.35px 2248.97px 2287.59px 2326.21px 2364.83px 2403.45px 2442.07px 2480.69px 2519.31px 2557.93px 2596.55px 2635.17px 2673.79px 2712.41px 2751.03px 2789.65px 2828.27px 2866.89px 2905.51px 2944.13px 2982.74px " y="2383.33px 2383.33px 2383.33px 2383.33px 2383.33px 2383.33px 2383.33px 2383.33px 2383.33px 2383.33px 2383.33px 2383.33px 2383.33px 2383.33px 2383.33px 2383.33px 2383.33px 2383.33px 2383.33px 2383.33px 2383.33px 2383.33px 2383.33px 2383.33px 2383.33px 2383.33px ">USHKEY · DENO · TYPESCRIPT</tspan></text><clipPath id="_clip3"><rect x="2044.08" y="206.273" width="875" height="850"/></clipPath><g clip-path="url(#_clip3)"><g><path d="M2417.08,379.811c-35.75,4.283 -86.729,12.587 -118.175,30.946c-19.583,11.437 -43.191,20.941 -59.741,36.254c-17.471,16.129 -45.663,42.204 -58.717,60.683c-24.463,34.625 -37.9,65.879 -51.221,106.579c-18.558,56.804 -27.167,131.104 -82.142,165.888c9.971,23.229 46.059,47.05 64.959,62.329c-0.238,-0.204 -0.517,-0.763 -0.821,-1.554c3.975,3.083 7.862,6.962 8.346,11.937c-0.442,-4.462 -32.221,5.896 -37.054,8.163c-0.13,0.054 -0.238,0.108 -0.334,0.166c34.988,39.955 78.338,71.763 126.492,94.092c83.104,38.517 177.883,51.233 268.671,42.438c0.037,0.004 0.071,-0.009 0.108,-0.005c0.033,0.005 0.071,-0.008 0.104,-0.004c90.788,-8.933 181.321,-39.712 255.425,-93.566c42.929,-31.192 79.309,-70.788 105.917,-116.763c-0.104,-0.029 -0.221,-0.062 -0.358,-0.096c-5.175,-1.291 -38.367,-5.316 -37.925,-0.85c-0.5,-4.979 2.566,-9.533 5.87,-13.321c-0.137,0.842 -0.304,1.45 -0.508,1.688c15.6,-18.65 46.404,-49.004 51.696,-73.696c-60.667,-23.521 -83.458,-94.758 -112.663,-146.904c-20.912,-37.363 -40.145,-65.438 -70.82,-94.671c-16.375,-15.612 -49.088,-35.742 -69.338,-48.212c-19.208,-11.821 -44.212,-16.575 -65.625,-24.013c-34.417,-11.925 -86.046,-10.246 -121.929,-7.537l-0.217,0.029Z" style="fill:#fff;fill-rule:nonzero;"/><path d="M2417.08,379.811c-35.75,4.283 -86.729,12.587 -118.175,30.946c-19.583,11.437 -43.191,20.941 -59.741,36.254c-17.471,16.129 -45.663,42.204 -58.717,60.683c-24.463,34.625 -37.9,65.879 -51.221,106.579c-18.558,56.804 -27.167,131.104 -82.142,165.888c9.971,23.229 46.059,47.05 64.959,62.329c-1.3,-1.071 -3.613,-12.592 -4.929,-13.667c-13,-15.612 -13.1,-28.325 -13.067,-28.304c-0.288,-2.325 -0.146,-4.721 0.687,-7.208c3.546,-10.371 48.842,-40.079 59.738,-50.184c12.562,-11.662 9.683,-27.22 12.85,-43.258c10.629,-53.958 39.771,-113.983 86.379,-145.521c57.596,-38.971 95.417,-14.062 125.763,39.609c21.845,38.6 35.883,83.137 44.945,126.462c8.95,-2.196 17.788,-3.475 25.58,-4.221c7.791,-0.779 16.737,-1.225 25.92,-0.8c0.517,-44.266 5.696,-90.683 19.659,-132.775c19.421,-58.516 51.708,-90.262 115.762,-63.158c51.804,21.946 92,75.192 112.854,126.092c6.205,15.116 6.388,30.954 20.975,39.958c12.642,7.817 62.817,28.212 68.3,37.712c1.313,2.263 1.896,4.592 2.08,6.921c0.02,-0.012 2.366,12.471 -7.359,30.317c-1.087,1.296 -1.129,13.05 -2.204,14.35c15.6,-18.65 46.404,-49.004 51.696,-73.696c-60.667,-23.521 -83.458,-94.758 -112.663,-146.904c-20.912,-37.363 -40.145,-65.438 -70.82,-94.671c-16.375,-15.612 -49.088,-35.742 -69.338,-48.212c-19.208,-11.821 -44.212,-16.575 -65.625,-24.013c-34.417,-11.925 -86.046,-10.246 -121.929,-7.537" style="fill:#da56d1;fill-rule:nonzero;"/><path d="M2756.8,576.49l1.775,3.596c2.759,5.662 5.546,11.696 8.492,18.096c14.25,31.025 30.417,66.17 58.262,85.204c6.18,4.212 12.221,6.821 17.088,8.912c4.15,1.792 8.433,3.638 9.446,5.234c0.287,0.475 1.583,3.291 -1.592,13.483c-6.754,21.833 -20.475,41.542 -35.462,58.537l-13.434,14.459l41.513,-4.042c0.312,2.804 -2.609,9.579 -8.721,20.175c-36.454,63.117 -103.183,106.621 -139.85,126.992l-23.533,11.854l-0.042,0.05c-1.667,0.875 -3.471,1.896 -5.242,2.883c-1.354,0.759 -2.65,1.488 -3.812,2.113l-8.888,4.791" style="fill:none;fill-rule:nonzero;stroke:#472773;stroke-width:15.75px;"/><path d="M2308.81,406.361l6.166,-2.329c30.242,-11.459 60.925,-19.188 101.804,-24.042l0.83,-0.071c41.05,-3.137 72.65,-1.5 104.537,3.9l6.492,1.104" style="fill:none;fill-rule:nonzero;stroke:#472773;stroke-width:15.75px;"/><path d="M2121.97,638.407l-1.042,3.875c-1.612,6.079 -3.187,12.55 -4.825,19.395c-8.012,33.188 -17.079,70.796 -40.716,94.85c-5.246,5.33 -10.675,9.046 -15.042,12.055c-3.725,2.545 -7.571,5.183 -8.246,6.954c-0.204,0.516 -0.912,3.541 4.146,12.937c10.867,20.104 28.125,36.771 46.112,50.554l15.98,11.613l-41.525,4.037c0.241,2.813 4.42,8.892 12.475,18.117c47.954,54.879 121.837,84.675 161.729,97.579l25.396,7.079l0.05,0.042c1.804,0.538 3.77,1.183 5.704,1.829c1.462,0.479 2.891,0.938 4.137,1.317l9.654,2.987" style="fill:none;fill-rule:nonzero;stroke:#472773;stroke-width:15.75px;"/><path d="M2664.54,959.594c-0.942,-9.058 -10.25,-18.875 -10.25,-18.875c-90.475,45.083 -172.525,53.25 -177.167,53.704c-4.625,0.459 -86.721,8.284 -184.2,-18.462c0,-0 -7.229,11.433 -6.396,20.496c0.813,9.058 0.009,25.12 30.7,36.162c30.7,11.025 84.542,27.817 165.363,17.733c81.237,-5.712 130.821,-32.595 158.796,-49.358c27.995,-16.758 24.091,-32.362 23.154,-41.4" style="fill:#472773;fill-rule:nonzero;"/><path d="M2747.94,537.44c5.733,-76.875 -12.846,-180.267 -46.205,-249.833c-11.783,-24.584 -40.345,-79.696 -73.591,-73.305c-28.404,5.467 -69.096,67.988 -84.084,92.413c-15.27,24.908 -27.541,51.558 -42.416,76.679l246.296,154.046Z" style="fill:#da56d1;fill-rule:nonzero;"/><path d="M2699.41,342.165c-32.608,-106.542 -84.012,-2.242 -115.321,52.979c0,0 10.792,5.788 26.646,15.733l63.338,48.484c14.421,14.896 32.991,35.087 45.275,51.783c1.808,-10.571 9.246,-73.625 -19.938,-168.979" style="fill:#fff;fill-rule:nonzero;"/><path d="M2496.43,379.665l3.2,-5.775c4.179,-7.583 8.379,-15.342 12.434,-22.863c19.833,-36.758 40.345,-74.779 68.629,-105.629c15.921,-17.35 30.825,-27.591 44.337,-30.437c24.042,-5.071 46.775,13.225 71.571,57.629c44.271,79.329 62.875,182.337 48.542,268.792l-0.659,3.97" style="fill:none;fill-rule:nonzero;stroke:#472773;stroke-width:15.75px;"/><path d="M2754.95,573.732c-11.679,-30.721 -29.583,-50.234 -40.587,-67.417c-34.492,-53.942 -85.346,-77.725 -86.888,-83.779c-0.842,-3.338 3.783,-7.192 9.679,-14.925c7.042,-9.238 14.125,-15.809 19.234,-20.038c4.008,9.267 8.233,20.184 11.283,32.792c2.771,11.471 7.871,24.612 8.5,37.167" style="fill:#472773;fill-rule:nonzero;stroke:#472773;stroke-width:15.75px;"/><path d="M2305.03,410.957c-21.737,-19.496 -41.462,-41.23 -63.521,-60.384c-21.629,-18.8 -79.225,-66.2 -107.962,-62.883c-33.638,3.9 -44.304,65.05 -48.15,92.037c-10.917,76.388 2.442,180.571 31.008,252.175l188.625,-220.945Z" style="fill:#da56d1;fill-rule:nonzero;"/><path d="M2126.39,402.998c-10.2,99.188 9.258,159.638 13.087,169.646c8.821,-18.758 23.154,-42.15 34.417,-59.558l52.783,-59.792c13.617,-12.846 23.084,-20.592 23.084,-20.592c-41.375,-48.129 -111.967,-140.533 -123.371,-29.704" style="fill:#fff;fill-rule:nonzero;"/><path d="M2308.87,405.832l-4.771,-4.55c-6.288,-5.975 -12.613,-12.117 -18.729,-18.071c-29.988,-29.1 -60.971,-59.196 -97.209,-80.113c-20.387,-11.771 -37.7,-17.054 -51.441,-15.721c-24.459,2.4 -40.654,26.7 -50.938,76.488c-18.396,88.967 -5.187,192.796 34.484,270.942l1.808,3.587" style="fill:none;fill-rule:nonzero;stroke:#472773;stroke-width:15.75px;"/><path d="M2123.36,635.327c5.516,-32.395 19.329,-54.995 26.8,-73.991c23.42,-59.579 68.708,-92.75 69.05,-98.992c0.179,-3.421 -5.096,-6.317 -12.375,-12.771c-8.684,-7.691 -16.921,-12.775 -22.738,-15.946c-2.154,9.863 -4.183,21.4 -4.729,34.367c-0.504,11.796 -2.967,25.679 -1.171,38.117" style="fill:#472773;fill-rule:nonzero;stroke:#472773;stroke-width:15.75px;"/><path d="M2724.83,785.632c1.6,16.525 -15.116,31.658 -37.341,33.829c-22.246,2.166 -41.567,-9.454 -43.184,-25.979c-1.604,-16.505 15.117,-31.659 37.342,-33.83c22.242,-2.166 41.562,9.459 43.183,25.98" style="fill:#e678e9;fill-rule:nonzero;"/><path d="M2193.86,837.419c-1.616,-16.525 15.117,-31.658 37.342,-33.829c22.246,-2.183 41.567,9.458 43.183,25.979c1.605,16.508 -15.116,31.658 -37.341,33.829c-22.242,2.167 -41.579,-9.458 -43.184,-25.979" style="fill:#e678e9;fill-rule:nonzero;"/><path d="M2560.79,632.169l43.108,-21.967" style="fill:none;fill-rule:nonzero;stroke:#472773;stroke-width:15.75px;"/><path d="M2325.1,655.157l-46.554,-13.225" style="fill:none;fill-rule:nonzero;stroke:#472773;stroke-width:15.75px;"/><path d="M2588.36,668.915c25.946,-2.529 49.042,16.454 51.571,42.4c2.529,25.946 -16.458,49.037 -42.4,51.567c-25.946,2.529 -49.042,-16.455 -51.571,-42.4c-2.529,-25.942 16.459,-49.038 42.4,-51.567" style="fill:#472773;"/><path d="M2616.21,725.14c4.43,-0.429 8.367,2.929 8.813,7.5c0.446,4.583 -2.771,8.646 -7.2,9.075c-4.425,0.429 -8.363,-2.929 -8.808,-7.517c-0.446,-4.566 2.77,-8.629 7.195,-9.058" style="fill:#ac9ec0;"/><path d="M2580.94,684.469c11.529,-1.121 21.796,7.313 22.916,18.842c1.121,11.529 -7.312,21.796 -18.837,22.916c-11.55,1.138 -21.8,-7.312 -22.921,-18.837c-1.137,-11.533 7.313,-21.8 18.842,-22.921" style="fill:#fff;"/><path d="M2601.52,740.015c-3.363,-8.133 -10.617,-14.092 -19.254,-15.829c-1.159,-0.234 -1.313,-1.825 -0.221,-2.284c8.133,-3.362 14.091,-10.616 15.829,-19.237c0.233,-1.175 1.825,-1.329 2.283,-0.221c3.363,8.117 10.617,14.092 19.254,15.829c1.159,0.234 1.313,1.809 0.225,2.267c-8.137,3.379 -14.112,10.633 -15.833,19.254c-0.229,1.158 -1.825,1.329 -2.283,0.221Z" style="fill:none;fill-rule:nonzero;stroke:#472773;stroke-width:15.75px;stroke-miterlimit:4;"/><path d="M2601.52,740.015c-3.363,-8.133 -10.617,-14.092 -19.254,-15.829c-1.159,-0.234 -1.313,-1.825 -0.221,-2.284c8.133,-3.362 14.091,-10.616 15.829,-19.237c0.233,-1.175 1.825,-1.329 2.283,-0.221c3.363,8.117 10.617,14.092 19.254,15.829c1.159,0.234 1.313,1.809 0.225,2.267c-8.137,3.379 -14.112,10.633 -15.833,19.254c-0.229,1.158 -1.825,1.329 -2.283,0.221" style="fill:#ac9ec0;"/><path d="M2588.5,669.069c-25.946,2.529 -44.929,25.621 -42.4,51.567c2.529,25.946 25.621,44.929 51.567,42.4c25.945,-2.529 44.929,-25.625 42.4,-51.567c-2.53,-25.946 -25.625,-44.929 -51.567,-42.4" style="fill:#472773;fill-rule:nonzero;"/><path d="M2541.51,673.644l4.945,50.7l93.967,-9.167l-4.95,-50.7l-93.962,9.167Z" style="fill:#fff;"/><path d="M2579.15,701.073c11.508,-1.121 21.796,7.329 22.917,18.842c1.125,11.512 -7.329,21.796 -18.838,22.921c-11.512,1.121 -21.8,-7.329 -22.921,-18.842c-1.125,-11.512 7.33,-21.796 18.842,-22.921" style="fill:#fff;fill-rule:nonzero;"/><path d="M2617.45,727.952l-1.016,-10.429l-61.409,5.996l1.021,10.429l61.404,-5.996Z" style="fill:#472773;"/><path d="M2305.36,696.686c-25.946,2.529 -44.929,25.621 -42.4,51.566c2.529,25.946 25.621,44.93 51.567,42.4c25.946,-2.529 44.929,-25.625 42.4,-51.566c-2.529,-25.946 -25.625,-44.929 -51.567,-42.4" style="fill:#472773;fill-rule:nonzero;"/><path d="M2357.28,742.79l-4.946,-50.688l-93.966,9.171l4.946,50.684l93.966,-9.167Z" style="fill:#fff;"/><path d="M2320.71,726.277c11.513,-1.12 21.796,7.334 22.921,18.842c1.121,11.513 -7.329,21.796 -18.841,22.921c-11.513,1.121 -21.796,-7.329 -22.921,-18.842c-1.121,-11.512 7.329,-21.796 18.841,-22.921" style="fill:#fff;fill-rule:nonzero;"/><path d="M2287.3,749.611l1.021,10.454l61.408,-5.996l-1.021,-10.45l-61.408,5.992Z" style="fill:#472773;"/><path d="M2481.12,747.069c-7.225,-0.846 -17.221,-0.933 -27.692,0.108c-0.054,0.013 -0.087,0.009 -0.142,0.021c-0.054,0.009 -0.104,0.004 -0.158,0.013c-10.462,0.991 -20.25,3.012 -27.192,5.246c-51.808,16.65 -12.6,67.258 24.655,67.779c6.537,0.025 13.037,-0.6 19.429,-1.909c36.471,-7.708 65.158,-64.937 11.1,-71.258" style="fill:#472773;fill-rule:nonzero;"/><path d="M2492.97,905.461c22.316,-17.1 18.491,-44.746 18.491,-44.746c-34.112,1.95 -49.837,-24.233 -49.837,-24.233c-0.017,-0.021 -10.379,28.729 -44.233,33.408c-0,-0 1.604,27.875 26.804,40.333c15.741,7.784 34.833,5.909 48.775,-4.762" style="fill:#472773;fill-rule:nonzero;"/><path d="M2492.97,905.461c22.316,-17.1 18.491,-44.746 18.491,-44.746c-34.112,1.95 -49.837,-24.233 -49.837,-24.233c-0.017,-0.021 -10.379,28.729 -44.233,33.408c-0,-0 1.604,27.875 26.804,40.333c15.741,7.784 34.833,5.909 48.775,-4.762Z" style="fill:none;fill-rule:nonzero;stroke:#472773;stroke-width:15.75px;"/><path d="M2485.53,876.448c-6.508,-1.704 -13.321,-2.216 -19.946,-1.537c-6.637,0.608 -13.216,2.433 -19.279,5.354c-10.891,5.258 -17.041,9.55 -5.562,19.112c7.912,6.563 18.175,9.013 27.991,7.888c9.842,-0.804 19.45,-5.175 25.934,-13.15c9.421,-11.6 2.571,-14.621 -9.138,-17.667" style="fill:#e678e9;fill-rule:nonzero;"/><path d="M2374.29,836.615c6.629,13.962 27.791,38.342 58.975,25.758c31.166,-12.587 26.341,-49.208 26.341,-49.208c0,-0 2.325,36.871 35.342,43.196c33.029,6.312 49.075,-21.679 52.879,-36.671" style="fill:none;fill-rule:nonzero;stroke:#472773;stroke-width:15.75px;"/><path d="M2776.55,658.877c-8.516,-49.1 -41.212,-91.058 -86.729,-111.362c-6.15,-2.742 -5.033,-11.7 1.604,-12.867c49.1,-8.521 91.075,-41.196 111.359,-86.712c2.745,-6.167 11.72,-5.05 12.87,1.6c8.521,49.1 41.213,91.058 86.73,111.346c6.15,2.758 5.033,11.716 -1.6,12.87c-49.1,8.534 -91.075,41.209 -111.363,86.73c-2.742,6.145 -11.717,5.033 -12.871,-1.605Z" style="fill:none;fill-rule:nonzero;stroke:#472773;stroke-width:18.63px;"/><path d="M2776.55,658.877c-8.516,-49.1 -41.212,-91.058 -86.729,-111.362c-6.15,-2.742 -5.033,-11.7 1.604,-12.867c49.1,-8.521 91.075,-41.196 111.359,-86.712c2.745,-6.167 11.72,-5.05 12.87,1.6c8.521,49.1 41.213,91.058 86.73,111.346c6.15,2.758 5.033,11.716 -1.6,12.87c-49.1,8.534 -91.075,41.209 -111.363,86.73c-2.742,6.145 -11.717,5.033 -12.871,-1.605" style="fill:#ffd83d;"/><path d="M2776.55,658.877c-8.516,-49.1 -41.212,-91.058 -86.729,-111.362c-6.15,-2.742 -5.033,-11.7 1.604,-12.867c49.1,-8.521 91.075,-41.196 111.359,-86.712c2.745,-6.167 11.72,-5.05 12.87,1.6c8.521,49.1 41.213,91.058 86.73,111.346c6.15,2.758 5.033,11.716 -1.6,12.87c-49.1,8.534 -91.075,41.209 -111.363,86.73c-2.742,6.145 -11.717,5.033 -12.871,-1.605Z" style="fill:none;fill-rule:nonzero;stroke:#472773;stroke-width:18.63px;"/><path d="M2173.44,1030.35c-15.38,-28.258 -44.05,-47.15 -76.08,-50.116c-4.341,-0.4 -5.52,-6.13 -1.691,-8.209c28.258,-15.379 47.133,-44.05 50.116,-76.079c0.4,-4.342 6.109,-5.504 8.209,-1.692c15.379,28.263 44.05,47.15 76.079,50.121c4.325,0.396 5.5,6.125 1.692,8.204c-28.259,15.38 -47.15,44.05 -50.121,76.08c-0.4,4.341 -6.125,5.52 -8.204,1.691Z" style="fill:none;fill-rule:nonzero;stroke:#472773;stroke-width:12.04px;"/><path d="M2173.44,1030.35c-15.38,-28.258 -44.05,-47.15 -76.08,-50.116c-4.341,-0.4 -5.52,-6.13 -1.691,-8.209c28.258,-15.379 47.133,-44.05 50.116,-76.079c0.4,-4.342 6.109,-5.504 8.209,-1.692c15.379,28.263 44.05,47.15 76.079,50.121c4.325,0.396 5.5,6.125 1.692,8.204c-28.259,15.38 -47.15,44.05 -50.121,76.08c-0.4,4.341 -6.125,5.52 -8.204,1.691" style="fill:#ffd83d;"/><path d="M2173.44,1030.35c-15.38,-28.258 -44.05,-47.15 -76.08,-50.116c-4.341,-0.4 -5.52,-6.13 -1.691,-8.209c28.258,-15.379 47.133,-44.05 50.116,-76.079c0.4,-4.342 6.109,-5.504 8.209,-1.692c15.379,28.263 44.05,47.15 76.079,50.121c4.325,0.396 5.5,6.125 1.692,8.204c-28.259,15.38 -47.15,44.05 -50.121,76.08c-0.4,4.341 -6.125,5.52 -8.204,1.691Z" style="fill:none;fill-rule:nonzero;stroke:#472773;stroke-width:15.75px;"/></g></g><defs><linearGradient id="_Linear1" x1="0" y1="0" x2="1" y2="0" gradientUnits="userSpaceOnUse" gradientTransform="matrix(1.60735e-13,2625,-2625,1.60735e-13,0,0)"><stop offset="0" style="stop-color:#0f0a1a;stop-opacity:1"/><stop offset="1" style="stop-color:#070512;stop-opacity:1"/></linearGradient><radialGradient id="_Radial2" cx="0" cy="0" r="1" gradientUnits="userSpaceOnUse" gradientTransform="matrix(2509.09,0,0,4868.72,426.11,1108.72)"><stop offset="0" style="stop-color:#a855f7;stop-opacity:0.35"/><stop offset="0.6" style="stop-color:#a855f7;stop-opacity:0.05"/><stop offset="1" style="stop-color:#a855f7;stop-opacity:0"/></radialGradient></defs></svg>